<svg width="180" height="181" viewBox="0 0 180 181" fill="current" xmlns="http://www.w3.org/2000/svg">
<g clip-path="url(#clip0)">
<g clip-path="url(#clip1)" filter="url(#filter0_ii)">
<path d="M90 0.5C40.305 0.5 0 40.7975 0 90.5C0 130.265 25.785 164 61.5525 175.902C66.045 176.735 67.5 173.945 67.5 171.575V154.82C42.465 160.265 37.2525 144.2 37.2525 144.2C33.1575 133.798 27.255 131.03 27.255 131.03C19.0875 125.442 27.8775 125.562 27.8775 125.562C36.915 126.192 41.67 134.84 41.67 134.84C49.695 148.595 62.7225 144.62 67.86 142.318C68.6625 136.505 70.995 132.53 73.575 130.288C53.5875 128 32.5725 120.283 32.5725 85.805C32.5725 75.9725 36.09 67.9475 41.8425 61.6475C40.9125 59.375 37.83 50.2175 42.72 37.8275C42.72 37.8275 50.28 35.4125 67.4775 47.0525C74.655 45.0575 82.35 44.06 90 44.0225C97.65 44.06 105.352 45.0575 112.545 47.0525C129.727 35.4125 137.272 37.8275 137.272 37.8275C142.17 50.225 139.087 59.3825 138.158 61.6475C143.932 67.9475 147.42 75.98 147.42 85.805C147.42 120.372 126.368 127.985 106.327 130.212C109.552 133.003 112.5 138.478 112.5 146.878V171.575C112.5 173.967 113.94 176.78 118.507 175.895C154.245 163.977 180 130.25 180 90.5C180 40.7975 139.702 0.5 90 0.5Z" fill="white"/>
</g>
</g>
<defs>
<filter id="filter0_ii" x="0" y="-1.5" width="180" height="184" filterUnits="userSpaceOnUse" color-interpolation-filters="sRGB">
<feFlood flood-opacity="0" result="BackgroundImageFix"/>
<feBlend mode="normal" in="SourceGraphic" in2="BackgroundImageFix" result="shape"/>
<feColorMatrix in="SourceAlpha" type="matrix" values="0 0 0 0 0 0 0 0 0 0 0 0 0 0 0 0 0 0 127 0" result="hardAlpha"/>
<feOffset dy="2"/>
<feGaussianBlur stdDeviation="2"/>
<feComposite in2="hardAlpha" operator="arithmetic" k2="-1" k3="1"/>
<feColorMatrix type="matrix" values="0 0 0 0 1 0 0 0 0 1 0 0 0 0 1 0 0 0 0.25 0"/>
<feBlend mode="normal" in2="shape" result="effect1_innerShadow"/>
<feColorMatrix in="SourceAlpha" type="matrix" values="0 0 0 0 0 0 0 0 0 0 0 0 0 0 0 0 0 0 127 0" result="hardAlpha"/>
<feOffset dy="-2"/>
<feGaussianBlur stdDeviation="2"/>
<feComposite in2="hardAlpha" operator="arithmetic" k2="-1" k3="1"/>
<feColorMatrix type="matrix" values="0 0 0 0 0 0 0 0 0 0 0 0 0 0 0 0 0 0 0.12 0"/>
<feBlend mode="normal" in2="effect1_innerShadow" result="effect2_innerShadow"/>
</filter>
<clipPath id="clip0">
<rect width="180" height="180" fill="white" transform="translate(0 0.5)"/>
</clipPath>
<clipPath id="clip1">
<rect width="180" height="180" fill="white" transform="translate(0 0.5)"/>
</clipPath>
</defs>
</svg>
