<svg width="48" height="48" viewBox="0 0 48 48" fill="none" xmlns="http://www.w3.org/2000/svg">
<path d="M0 24C0 10.7452 10.7452 0 24 0C37.2548 0 48 10.7452 48 24C48 37.2548 37.2548 48 24 48C10.7452 48 0 37.2548 0 24Z" fill="white"/>
<path d="M23.4512 17.2465L23.5335 18.5873L22.1607 18.4231C17.1635 17.7938 12.7978 15.6594 9.09111 12.0747L7.27894 10.296L6.81217 11.6095C5.82371 14.5374 6.45523 17.6296 8.51451 19.7092C9.61279 20.8585 9.36568 21.0227 7.47114 20.3386C6.81217 20.1197 6.23557 19.9555 6.18066 20.0376C5.98846 20.2292 6.64743 22.7193 7.16911 23.7044C7.883 25.0726 9.33822 26.4134 10.9307 27.207L12.2761 27.8364L10.6836 27.8637C9.14602 27.8637 9.09111 27.8911 9.25585 28.4657C9.80499 30.2444 11.9741 32.1325 14.3903 32.9534L16.0927 33.5281L14.61 34.4037C12.4134 35.6625 9.83245 36.3739 7.25148 36.4287C6.01591 36.456 5 36.5655 5 36.6476C5 36.9212 8.34977 38.4536 10.2992 39.0556C16.1476 40.8343 23.0942 40.0681 28.3111 37.0307C32.0178 34.8689 35.7245 30.5728 37.4543 26.4134C38.3878 24.1969 39.3214 20.1471 39.3214 18.2042C39.3214 16.9455 39.4037 16.7813 40.9413 15.2763C41.8474 14.4006 42.6986 13.4429 42.8633 13.1692C43.1379 12.6493 43.1105 12.6493 41.7101 13.1145C39.3763 13.9354 39.0468 13.826 40.2 12.5946C41.0512 11.719 42.0671 10.1318 42.0671 9.66665C42.0671 9.58456 41.6552 9.72138 41.1885 9.96765C40.6942 10.2413 39.5959 10.6518 38.7722 10.898L37.2895 11.3632L35.9441 10.4602C35.2028 9.96765 34.1594 9.42037 33.6103 9.25619C32.21 8.87309 30.0683 8.92782 28.8053 9.36565C25.3732 10.597 23.2041 13.7713 23.4512 17.2465Z" fill="black"/>
</svg>
